<svg xmlns="http://www.w3.org/2000/svg" width="100" height="100" viewBox="0 0 100 100" version="1.1"><path d="" stroke="none" fill="#080404" fill-rule="evenodd"/><path d="M 48 35.221 L 48 64.442 41.723 58.221 C 38.271 54.800, 34.671 52, 33.723 52 C 30.073 52, 32.322 55.862, 41 64.500 L 50 73.458 59 64.500 C 67.678 55.862, 69.927 52, 66.277 52 C 65.329 52, 61.729 54.800, 58.277 58.221 L 52 64.442 52 35.221 C 52 6.667, 51.954 6, 50 6 C 48.046 6, 48 6.667, 48 35.221 M 4 80.077 C 4 87.671, 4.175 88.329, 6.923 91.077 L 9.846 94 50 94 L 90.154 94 93.077 91.077 C 95.825 88.329, 96 87.671, 96 80.077 C 96 72.667, 95.835 72, 94 72 C 92.204 72, 92 72.667, 92 78.545 C 92 84.162, 91.652 85.439, 89.545 87.545 L 87.091 90 50 90 L 12.909 90 10.455 87.545 C 8.348 85.439, 8 84.162, 8 78.545 C 8 72.667, 7.796 72, 6 72 C 4.165 72, 4 72.667, 4 80.077" stroke="none" fill="#040404" fill-rule="evenodd"/></svg>