<svg xmlns="http://www.w3.org/2000/svg" width="100" height="100" viewBox="0 0 100 100" version="1.1"><path d="" stroke="none" fill="#080404" fill-rule="evenodd"/><path d="M 1.571 1.571 C 0.188 2.955, 0 8.736, 0 50 C 0 91.264, 0.188 97.045, 1.571 98.429 C 2.943 99.800, 7.827 100, 40 100 C 72.173 100, 77.057 99.800, 78.429 98.429 C 79.639 97.219, 80 94.653, 80 87.274 C 80 77.753, 79.987 77.702, 78 79.500 C 76.413 80.936, 76 82.580, 76 87.455 C 76 90.901, 75.473 94.127, 74.800 94.800 C 73.081 96.519, 6.919 96.519, 5.200 94.800 C 3.474 93.074, 3.474 6.926, 5.200 5.200 C 6.919 3.481, 73.081 3.481, 74.800 5.200 C 75.473 5.873, 76 9.099, 76 12.545 C 76 17.420, 76.413 19.064, 78 20.500 C 79.987 22.298, 80 22.247, 80 12.726 C 80 5.347, 79.639 2.781, 78.429 1.571 C 77.057 0.200, 72.173 0, 40 0 C 7.827 0, 2.943 0.200, 1.571 1.571 M 74 27.731 C 74 28.683, 78.154 33.633, 83.230 38.731 L 92.460 48 62.230 48 C 32.667 48, 32 48.044, 32 50 C 32 51.956, 32.667 52, 62.230 52 L 92.460 52 83.230 61.269 C 74.283 70.254, 72.086 74, 75.766 74 C 77.906 74, 100 52.089, 100 49.968 C 100 47.872, 77.857 26, 75.734 26 C 74.756 26, 74 26.755, 74 27.731" stroke="none" fill="#040404" fill-rule="evenodd"/></svg>