<svg xmlns="http://www.w3.org/2000/svg" width="100" height="100" viewBox="0 0 100 100" version="1.1"><path d="" stroke="none" fill="#080404" fill-rule="evenodd"/><path d="M 17.763 9.557 C 12.448 12.457, 12 14.789, 12 39.567 L 12 62.233 7.997 58.616 C 3.529 54.580, 2.783 54.352, 1.013 56.484 C -0.012 57.720, 0.916 59.143, 6.555 64.984 C 10.280 68.843, 14.055 72, 14.943 72 C 17.116 72, 29 59.903, 29 57.692 C 29 54.251, 25.966 54.628, 21.929 58.569 L 18 62.406 18 39.403 C 18 22.845, 18.336 16.064, 19.200 15.200 C 20.077 14.323, 28.096 13.996, 48.950 13.985 C 64.653 13.976, 78.107 13.585, 78.848 13.115 C 79.590 12.645, 80.034 11.414, 79.835 10.380 C 79.492 8.597, 77.958 8.489, 49.987 8.282 C 25.425 8.100, 20.043 8.313, 17.763 9.557 M 77.221 34.277 C 70.977 40.577, 69.649 43.544, 72.571 44.665 C 73.575 45.051, 75.557 43.886, 78.071 41.431 L 82 37.594 82 60.597 C 82 77.155, 81.664 83.936, 80.800 84.800 C 79.923 85.677, 71.904 86.004, 51.050 86.015 C 35.347 86.024, 21.893 86.415, 21.152 86.885 C 20.410 87.355, 19.966 88.586, 20.165 89.620 C 20.508 91.402, 22.057 91.514, 49.784 91.765 C 74.473 91.989, 79.503 91.791, 82.003 90.498 C 87.559 87.626, 88 85.413, 88 60.433 L 88 37.767 92.003 41.384 C 96.471 45.420, 97.217 45.648, 98.987 43.516 C 100.012 42.280, 99.084 40.857, 93.445 35.016 C 89.720 31.157, 85.945 28, 85.057 28 C 84.169 28, 80.643 30.825, 77.221 34.277" stroke="none" fill="#040404" fill-rule="evenodd"/></svg>